<?xml version="1.0" encoding="UTF-8" standalone="no"?>
<svg
   xmlns:dc="http://purl.org/dc/elements/1.1/"
   xmlns:cc="http://creativecommons.org/ns#"
   xmlns:rdf="http://www.w3.org/1999/02/22-rdf-syntax-ns#"
   xmlns:svg="http://www.w3.org/2000/svg"
   xmlns="http://www.w3.org/2000/svg"
   width="93.268333mm"
   height="121.9296mm"
   viewBox="0 0 93.268336 121.9296"
   version="1.1"
   id="svg8">
  <defs
     id="defs2" />
  <metadata
     id="metadata5">
    <rdf:RDF>
      <cc:Work
         rdf:about="">
        <dc:format>image/svg+xml</dc:format>
        <dc:type
           rdf:resource="http://purl.org/dc/dcmitype/StillImage" />
        <dc:title></dc:title>
      </cc:Work>
    </rdf:RDF>
  </metadata>
  <g
     transform="translate(-53.919879,-97.348103)"
     style="display:inline"
     id="layer2">
    <path
       id="rect963"
       d="m 91.015011,97.351106 c -2.099874,-0.07962 -4.165506,1.430596 -4.326389,3.731334 -0.111272,1.59127 0.674476,5.90509 1.60837,8.83189 0.405687,1.27141 0.865121,3.33514 1.021006,4.58599 0.155889,1.25084 0.404438,3.00755 0.552249,3.90361 0.147814,0.89607 0.473827,3.72366 0.724615,6.28357 0.250783,2.55989 0.812044,6.27524 1.247137,8.25648 0.881645,4.01461 0.817298,4.71193 -0.494996,5.36011 -0.753567,0.37221 -0.868108,0.36756 -1.38867,-0.0541 -0.668131,-1.05183 -0.93561,-2.50724 -1.214109,-3.69865 -0.303276,-1.37056 -0.836818,-3.28769 -1.185722,-4.26028 -0.684112,-1.90702 -1.821585,-5.95369 -2.583038,-9.19117 -1.002459,-3.88204 -1.262425,-6.80706 -1.637313,-9.67 -0.723902,-4.89317 -1.26846,-6.34375 -2.710875,-7.22229 -2.264619,-1.37931 -5.841377,0.25399 -6.432055,2.93708 -0.408691,1.85644 0.09262,6.14728 1.07014,9.15791 0.48465,1.49265 0.869057,2.95177 0.854382,3.24249 -0.01471,0.29072 0.134272,1.31564 0.330787,2.27758 0.196516,0.96195 0.598939,2.95942 0.894021,4.4388 0.295079,1.4794 0.723991,3.30205 0.953306,4.05029 0.229311,0.74824 0.404183,1.53915 0.388921,1.7574 -0.04183,0.59818 1.11344,4.20124 2.040462,6.36418 0.451177,1.05268 0.983032,2.78309 1.181601,3.84505 l 0.360755,1.93053 -1.168439,0.99682 c -1.609817,1.37312 -2.493256,1.29854 -3.752224,-0.31626 -0.513389,-0.65848 -1.772344,-2.00504 -2.797371,-2.99243 -1.025026,-0.9874 -2.107145,-2.19486 -2.404579,-2.68316 -0.297432,-0.48829 -1.222074,-1.96952 -2.055349,-3.29177 -0.833275,-1.32225 -1.736438,-3.11603 -2.006793,-3.98615 -1.233714,-3.97071 -2.869299,-7.02726 -4.317662,-8.06869 -0.984425,-0.70784 -2.896333,-0.92823 -3.726179,-0.42944 -0.307953,0.18511 -0.876553,0.85925 -1.263563,1.49784 -0.607069,1.00169 -0.699804,1.40797 -0.674686,2.95893 0.02956,1.82477 0.565696,4.21619 1.088711,4.85492 0.158062,0.19303 0.684725,1.12501 1.169929,2.07103 0.485205,0.94601 1.025018,1.88781 1.199491,2.09278 0.174477,0.20496 0.307551,0.506 0.296133,0.66928 -0.04002,0.57232 2.627097,4.84332 4.202962,6.73089 2.138498,2.56149 3.098017,4.2645 5.206578,9.23942 0.414154,0.97716 0.725489,2.17531 0.691883,2.66235 -0.03353,0.48703 0.175081,1.45644 0.464254,2.15429 0.687928,1.66015 1.937337,6.41374 2.35346,8.95548 0.352458,2.15285 1.091784,5.24582 2.104528,8.8039 0.6073,2.13362 2.155815,6.07727 2.501542,6.37103 0.09353,0.0795 0.446819,0.7116 0.784997,1.40487 0.88569,1.81568 2.417928,3.69183 3.924317,4.80404 0.719852,0.53149 1.780881,1.3592 2.35737,1.83962 0.576486,0.48043 1.364546,1.13448 1.751357,1.45328 1.528388,1.25966 3.358568,1.82623 6.640838,2.05575 2.853041,0.1995 4.431933,0.0492 5.496819,-0.11653 1.12924,-0.17577 4.27957,-0.75598 4.32441,-0.94245 0.009,-0.1333 0.30698,-0.22201 0.66132,-0.19723 0.35436,0.0248 0.72222,-0.0638 0.81773,-0.19665 0.0955,-0.13284 0.34083,-0.16362 0.54458,-0.0686 0.20376,0.095 0.57831,-0.008 0.83241,-0.22878 4.02492,-1.51938 5.87568,-2.13109 7.79566,-3.25009 2.31672,-1.21895 3.57022,-2.04098 4.24353,-2.70973 0.30966,-0.45241 1.17145,-1.34906 1.91509,-1.99206 1.6663,-1.44083 3.00745,-3.07774 4.2953,-5.24252 0.54156,-0.91034 1.15091,-1.82255 1.35394,-2.02716 0.53215,-0.53633 2.39062,-3.75969 2.86628,-4.97155 0.22291,-0.56792 0.91311,-1.83254 1.53354,-2.81029 0.62045,-0.97775 1.45474,-2.70083 1.85447,-3.82907 1.26716,-3.57659 2.96985,-6.2773 5.50725,-8.73579 0.4654,-0.45093 1.33918,-1.46401 1.94151,-2.2513 0.60234,-0.7873 1.47809,-1.88202 1.94643,-2.43278 1.61556,-1.89987 4.08618,-5.43998 4.2971,-6.15723 0.56033,-1.90535 -0.9155,-3.89487 -2.97484,-4.01034 -1.85962,-0.10428 -7.11624,2.17214 -8.15889,3.53328 -0.34046,0.44447 -1.18187,1.54478 -1.87009,2.44486 -0.68821,0.90006 -1.34997,2.03895 -1.47048,2.53082 -0.17218,0.70278 -0.382,0.92606 -0.98045,1.04209 -0.77446,0.15016 -1.97372,1.10851 -3.27517,2.61804 -2.28735,2.65307 -4.12802,4.27007 -5.05734,4.44277 -2.38847,0.44384 -2.51441,-0.0997 -3.78953,-1.5756 -0.67063,-0.7762 -1.36655,-1.68421 -1.94945,-2.5467 -0.75782,-1.12132 -1.91142,-4.0075 -2.02619,-4.94586 -0.52332,-8.7056 -0.49869,-11.46156 0.13233,-14.77521 0.67561,-3.54776 0.85647,-12.56208 0.34033,-16.96435 -0.18106,-1.54436 -0.35847,-3.94384 -0.39434,-5.33217 -0.16234,-6.28505 -1.18251,-9.29249 -3.5742,-10.53689 -1.73412,-0.90226 -4.39635,-0.231 -5.04069,1.27101 -0.83351,1.94297 -0.96959,5.05991 -0.40285,9.22067 0.42289,3.10475 0.18492,12.93192 -0.42152,17.40677 -0.86432,6.37778 -0.88772,6.43478 -2.81714,6.93571 -1.75969,0.45687 -2.04958,-0.22368 -2.30776,-5.42349 -0.19695,-3.96683 -0.58564,-6.47563 -1.953387,-12.60237 -0.8424,-3.77348 -1.214861,-5.18059 -1.769192,-6.68763 -0.233939,-0.63598 -0.470857,-2.38318 -0.526777,-3.88266 -0.1317,-3.53151 -1.121096,-7.56508 -2.144566,-8.74246 -0.167669,-0.192879 -0.731127,-0.685673 -1.25216,-1.095121 -0.720066,-0.565901 -1.547417,-0.840628 -2.369107,-0.871783 z"
       style="fill:#ffcd94;fill-opacity:1;fill-rule:nonzero;stroke:none;stroke-width:0.26499999;stroke-miterlimit:4;stroke-dasharray:none;stroke-opacity:1" />
    <path
       id="path923-9"
       d="m 93.511503,186.1967 c -0.899187,-0.77986 -2.562806,0.57843 -3.260044,1.27567 -0.697238,0.69724 -3.169865,1.90529 -2.110887,2.29889 1.058977,0.39359 1.722469,0.66552 2.645833,0 0.923364,-0.66552 3.624285,-2.7947 2.725098,-3.57456 z"
       style="fill:#cdcdcd;fill-opacity:1;stroke:none;stroke-width:0.26458332px;stroke-linecap:butt;stroke-linejoin:miter;stroke-opacity:1" />
  </g>
  <g
     transform="translate(-5.9709839,-2.1196598)"
     id="layer11">
    <g
       id="flowRoot1719"
       style="font-style:normal;font-weight:normal;font-size:40px;line-height:1.25;font-family:sans-serif;letter-spacing:0px;word-spacing:0px;display:inline;fill:#000000;fill-opacity:1;stroke:none"
       transform="matrix(0.26458333,0,0,0.26458333,-66.454293,-103.20907)"
       aria-label="OOKAB">
      <path
         id="path881"
         style="font-style:normal;font-variant:normal;font-weight:normal;font-stretch:normal;font-size:106.66667175px;font-family:Baloo;-inkscape-font-specification:'Baloo, Normal';font-variant-ligatures:normal;font-variant-caps:normal;font-variant-numeric:normal;font-feature-settings:normal;text-align:start;writing-mode:lr-tb;text-anchor:start"
         d="m 273.73333,824.58249 q 0,-8.32 2.56,-14.72 2.66667,-6.4 7.14667,-10.66667 4.58667,-4.37333 10.66667,-6.61333 6.18666,-2.24 13.33333,-2.24 7.14667,0 13.22667,2.24 6.18667,2.24 10.77333,6.61333 4.58667,4.26667 7.14667,10.66667 2.66667,6.4 2.66667,14.72 0,8.32 -2.56,14.82667 -2.56,6.4 -7.14667,10.77333 -4.48,4.26667 -10.66667,6.50667 -6.18666,2.24 -13.44,2.24 -7.25333,0 -13.44,-2.24 -6.18667,-2.34667 -10.66667,-6.72 -4.48,-4.37334 -7.04,-10.77334 -2.56,-6.4 -2.56,-14.61333 z m 19.2,0 q 0,9.70667 3.94667,14.50667 3.94667,4.8 10.56,4.8 6.72,0 10.66667,-4.8 3.94667,-4.8 3.94667,-14.50667 0,-9.6 -3.94667,-14.4 -3.84,-4.8 -10.56,-4.8 -6.61334,0 -10.66667,4.8 -3.94667,4.69333 -3.94667,14.4 z" />
      <path
         id="path883"
         style="font-style:normal;font-variant:normal;font-weight:normal;font-stretch:normal;font-size:106.66667175px;font-family:Baloo;-inkscape-font-specification:'Baloo, Normal';font-variant-ligatures:normal;font-variant-caps:normal;font-variant-numeric:normal;font-feature-settings:normal;text-align:start;writing-mode:lr-tb;text-anchor:start"
         d="m 348.73333,824.58249 q 0,-8.32 2.56,-14.72 2.66667,-6.4 7.14667,-10.66667 4.58667,-4.37333 10.66667,-6.61333 6.18666,-2.24 13.33333,-2.24 7.14667,0 13.22667,2.24 6.18667,2.24 10.77333,6.61333 4.58667,4.26667 7.14667,10.66667 2.66667,6.4 2.66667,14.72 0,8.32 -2.56,14.82667 -2.56,6.4 -7.14667,10.77333 -4.48,4.26667 -10.66667,6.50667 -6.18666,2.24 -13.44,2.24 -7.25333,0 -13.44,-2.24 -6.18667,-2.34667 -10.66667,-6.72 -4.48,-4.37334 -7.04,-10.77334 -2.56,-6.4 -2.56,-14.61333 z m 19.2,0 q 0,9.70667 3.94667,14.50667 3.94667,4.8 10.56,4.8 6.72,0 10.66667,-4.8 3.94667,-4.8 3.94667,-14.50667 0,-9.6 -3.94667,-14.4 -3.84,-4.8 -10.56,-4.8 -6.61334,0 -10.66667,4.8 -3.94667,4.69333 -3.94667,14.4 z" />
      <path
         id="path885"
         style="font-style:normal;font-variant:normal;font-weight:normal;font-stretch:normal;font-size:106.66667175px;font-family:Baloo;-inkscape-font-specification:'Baloo, Normal';font-variant-ligatures:normal;font-variant-caps:normal;font-variant-numeric:normal;font-feature-settings:normal;text-align:start;writing-mode:lr-tb;text-anchor:start"
         d="m 445.70667,833.00916 v 23.57333 q -1.17334,0.32 -3.73334,0.64 -2.56,0.32 -5.01333,0.32 -2.45333,0 -4.37333,-0.42667 -1.81334,-0.32 -3.09334,-1.28 -1.28,-0.96 -1.92,-2.66666 -0.64,-1.70667 -0.64,-4.48 v -56.32 q 1.17334,-0.21334 3.73334,-0.53334 2.56,-0.42666 4.90666,-0.42666 2.45334,0 4.26667,0.42666 1.92,0.32 3.2,1.28 1.28,0.96 1.92,2.66667 0.64,1.70667 0.64,4.48 v 16.96 l 22.18667,-25.49333 q 7.25333,0 10.34667,2.77333 3.2,2.66667 3.2,6.4 0,2.77333 -1.38667,5.22667 -1.38667,2.45333 -4.48,5.54666 l -13.33333,13.33334 q 2.66666,2.98666 5.54666,6.18666 2.98667,3.2 5.76,6.29334 2.88,2.98666 5.44,5.76 2.66667,2.77333 4.58667,4.8 0,2.34666 -0.85333,4.16 -0.85334,1.81333 -2.34667,3.09333 -1.38667,1.28 -3.2,1.92 -1.81333,0.64 -3.84,0.64 -4.37333,0 -7.14667,-2.13333 -2.77333,-2.24 -5.33333,-5.22667 z" />
      <path
         id="path887"
         style="font-style:normal;font-variant:normal;font-weight:normal;font-stretch:normal;font-size:106.66667175px;font-family:Baloo;-inkscape-font-specification:'Baloo, Normal';font-variant-ligatures:normal;font-variant-caps:normal;font-variant-numeric:normal;font-feature-settings:normal;text-align:start;writing-mode:lr-tb;text-anchor:start"
         d="m 507.56833,794.28916 q 1.81334,-1.06667 5.44,-2.02667 3.73334,-0.96 7.46667,-0.96 5.33334,0 9.38667,1.6 4.16,1.49333 5.33333,4.8 1.92,5.54667 4.16,12.90667 2.24,7.36 4.48,15.25333 2.24,7.78667 4.37334,15.46667 2.13333,7.57333 3.73333,13.44 -1.28,1.49333 -3.84,2.34666 -2.56,0.96001 -6.08,0.96001 -2.56,0 -4.37333,-0.42667 -1.70667,-0.42667 -2.88,-1.28 -1.06667,-0.85334 -1.81334,-2.24 -0.64,-1.38667 -1.17333,-3.2 l -1.92,-7.36 H 510.555 q -0.85333,3.2 -1.70667,6.61333 -0.85333,3.41333 -1.70666,6.61333 -1.49334,0.53334 -3.2,0.85334 -1.6,0.42667 -3.94667,0.42667 -5.44,0 -8.10667,-1.81334 -2.56,-1.92 -2.56,-5.22667 0,-1.49333 0.42667,-2.98666 0.42667,-1.49334 0.96,-3.52 0.74667,-2.88 2.02667,-7.14667 1.38666,-4.26667 2.98666,-9.17333 1.6,-5.01334 3.41334,-10.24 1.81333,-5.22667 3.41333,-9.81334 1.6,-4.69333 2.88,-8.32 1.38667,-3.62666 2.13333,-5.54666 z m 12.8,13.76 q -1.49333,4.48 -3.41333,10.02666 -1.81333,5.44 -3.30667,11.09334 H 526.875 q -1.49333,-5.76 -3.09333,-11.2 -1.49333,-5.54667 -2.77334,-9.92 z" />
      <path
         id="path889"
         style="font-style:normal;font-variant:normal;font-weight:normal;font-stretch:normal;font-size:106.66667175px;font-family:Baloo;-inkscape-font-specification:'Baloo, Normal';font-variant-ligatures:normal;font-variant-caps:normal;font-variant-numeric:normal;font-feature-settings:normal;text-align:start;writing-mode:lr-tb;text-anchor:start"
         d="m 578.81667,843.67582 q 1.49333,0.42667 3.84,0.64 2.34666,0.10667 4.48,0.10667 4.26667,0 7.04,-1.70667 2.88,-1.81333 2.88,-5.54666 0,-3.52 -2.34667,-5.01334 -2.34666,-1.49333 -7.14667,-1.49333 h -8.74666 z m 0,-26.02666 h 7.78666 q 4.58667,0 6.61334,-1.70667 2.13333,-1.70667 2.13333,-5.01333 0,-2.88 -2.45333,-4.58667 -2.34667,-1.70667 -7.14667,-1.70667 -1.6,0 -3.73333,0.10667 -2.02667,0.10667 -3.2,0.32 z m 6.93333,41.06667 q -1.81333,0 -4.26667,-0.10667 -2.45333,-0.10667 -5.12,-0.42667 -2.56,-0.32 -5.12,-0.85333 -2.56,-0.42667 -4.69333,-1.28 -5.86667,-2.24 -5.86667,-7.78667 v -49.81333 q 0,-2.24 1.17334,-3.41334 1.28,-1.28 3.41333,-2.02666 3.62667,-1.28 9.06667,-1.81334 5.44,-0.64 11.2,-0.64 13.65333,0 21.01333,4.58667 7.36,4.58667 7.36,14.18667 0,4.8 -2.77333,8.32 -2.77333,3.41333 -7.46667,5.01333 5.33334,1.49333 8.85334,5.44 3.62666,3.94667 3.62666,9.92 0,10.56 -7.89333,15.68 -7.78667,5.01334 -22.50667,5.01334 z" />
    </g>
  </g>
  <g
     transform="translate(-5.9709839,-2.1196598)"
     style="display:inline"
     id="layer3">
    <g
       transform="matrix(0.26458333,0,0,0.26458333,-30.799875,-10.456249)"
       id="g888"
       style="display:inline;fill:#ff3a3c;fill-opacity:1">
      <g
         style="fill:#ff3a3c;fill-opacity:1"
         id="g832">
        <path
           style="fill:#ff3a3c;fill-opacity:1;stroke-width:0.27606115"
           d="m 370.79499,266.36342 c -6.67377,-6.5167 -15.89422,-9.77367 -27.66546,-9.77367 -3.25753,0 -6.58214,0.56482 -9.97051,1.69391 -3.38975,1.12992 -6.5432,2.65433 -9.45675,4.57212 -2.91741,1.91725 -5.4246,3.71771 -7.52791,5.39866 -2.10082,1.68148 -4.09813,3.46844 -5.98942,5.35945 -1.89212,-1.89101 -3.88888,-3.67797 -5.98997,-5.35945 -2.10248,-1.68095 -4.61077,-3.48031 -7.52763,-5.39866 -2.91632,-1.91863 -6.06922,-3.44193 -9.45814,-4.57212 -3.38866,-1.12881 -6.7127,-1.69391 -9.97022,-1.69391 -11.77043,0 -20.99142,3.2578 -27.66437,9.77367 -6.67295,6.51532 -10.0097,15.55246 -10.0097,27.11224 0,3.52061 0.61838,7.14695 1.85264,10.87626 1.23428,3.73069 2.6408,6.91009 4.21684,9.5368 1.57576,2.62645 3.3627,5.18885 5.35945,7.68472 1.99675,2.49615 3.45601,4.21545 4.37447,5.16207 0.91927,0.94468 1.64201,1.62848 2.16736,2.04809 l 49.18111,47.4483 c 0.94606,0.94661 2.10194,1.42005 3.46788,1.42005 1.36595,0 2.52265,-0.47344 3.46816,-1.41812 l 49.103,-47.29121 c 12.03295,-12.03158 18.04887,-23.85445 18.04887,-35.46696 2.8e-4,-11.55978 -3.33702,-20.59692 -10.0097,-27.11224 z"
           id="path830" />
      </g>
      <g
         style="fill:#ff3a3c;fill-opacity:1"
         id="g834" />
      <g
         style="fill:#ff3a3c;fill-opacity:1"
         id="g836" />
      <g
         style="fill:#ff3a3c;fill-opacity:1"
         id="g838" />
      <g
         style="fill:#ff3a3c;fill-opacity:1"
         id="g840" />
      <g
         style="fill:#ff3a3c;fill-opacity:1"
         id="g842" />
      <g
         style="fill:#ff3a3c;fill-opacity:1"
         id="g844" />
      <g
         style="fill:#ff3a3c;fill-opacity:1"
         id="g846" />
      <g
         style="fill:#ff3a3c;fill-opacity:1"
         id="g848" />
      <g
         style="fill:#ff3a3c;fill-opacity:1"
         id="g850" />
      <g
         style="fill:#ff3a3c;fill-opacity:1"
         id="g852" />
      <g
         style="fill:#ff3a3c;fill-opacity:1"
         id="g854" />
      <g
         style="fill:#ff3a3c;fill-opacity:1"
         id="g856" />
      <g
         style="fill:#ff3a3c;fill-opacity:1"
         id="g858" />
      <g
         style="fill:#ff3a3c;fill-opacity:1"
         id="g860" />
      <g
         style="fill:#ff3a3c;fill-opacity:1"
         id="g862" />
    </g>
  </g>
  <g
     style="display:inline"
     transform="translate(-5.9709839,-2.1196598)"
     id="layer4">
    <path
       id="path919"
       d="m 32.742187,77.844503 c -0.93475,0.753382 -1.089366,0.88189 -1.700892,2.504094 -0.611526,1.622204 2.533832,-0.559186 3.496278,-1.27567 0.962446,-0.716484 2.85724,-1.776977 2.078871,-2.787573 -0.778369,-1.010596 -2.939507,0.805767 -3.874257,1.559149 z"
       style="fill:#cdcdcd;fill-opacity:1;stroke:none;stroke-width:0.26458332px;stroke-linecap:butt;stroke-linejoin:miter;stroke-opacity:1" />
    <path
       id="path931"
       d="m 57.263392,51.480666 c -0.648345,-0.64777 -1.935553,0.226148 -2.69308,0.850445 -0.757527,0.624297 -2.152644,1.84253 -1.464657,2.69308 0.687987,0.85055 1.770292,-1.02701 3.354538,-1.370163 1.584246,-0.343153 1.451544,-1.525592 0.803199,-2.173362 z"
       style="fill:#cdcdcd;fill-opacity:1;stroke:none;stroke-width:0.26458332px;stroke-linecap:butt;stroke-linejoin:miter;stroke-opacity:1" />
    <path
       id="path933"
       d="m 63.16927,51.433419 c -0.09449,0 -1.931201,0.333241 -2.55134,1.039435 -0.620139,0.706194 -1.695542,1.895416 -0.944941,2.598587 0.750601,0.703171 0.859424,0.225987 3.118305,-1.370166 2.258881,-1.596153 0.472471,-2.267856 0.377976,-2.267856 z"
       style="fill:#cdcdcd;fill-opacity:1;stroke:none;stroke-width:0.26458332px;stroke-linecap:butt;stroke-linejoin:miter;stroke-opacity:1" />
    <path
       id="path917"
       d="m 35.057291,68.253358 c 0.410532,-0.799162 -3.417915,0.460658 -4.346726,1.370166 -0.928811,0.909508 -1.951349,3.357595 -1.039434,3.071055 0.911915,-0.28654 2.589367,-0.61318 3.046738,-1.27428 0.457371,-0.6611 1.92889,-2.367779 2.339422,-3.166941 z"
       style="fill:#cdcdcd;fill-opacity:1;stroke:none;stroke-width:0.26458332px;stroke-linecap:butt;stroke-linejoin:miter;stroke-opacity:1" />
    <path
       id="path921"
       d="m 36.717771,72.654892 c -0.634775,-0.607776 -2.421183,0.501583 -3.175,1.058333 -0.753817,0.55675 -3.131245,1.712353 -1.322916,1.852084 1.808329,0.139731 3.251416,-0.353583 3.96875,-1.058334 0.717334,-0.704751 1.163941,-1.244307 0.529166,-1.852083 z"
       style="fill:#cdcdcd;fill-opacity:1;stroke:none;stroke-width:0.26458332px;stroke-linecap:butt;stroke-linejoin:miter;stroke-opacity:1" />
    <path
       id="path923"
       d="m 42.009438,77.417392 c -0.899187,-0.779861 -1.948595,0.625679 -2.645833,1.322917 -0.697238,0.697238 -3.217112,2.519504 -2.158134,2.913103 1.058977,0.393598 1.722469,0.665523 2.645833,0 0.923364,-0.665523 3.057321,-3.456159 2.158134,-4.23602 z"
       style="fill:#cdcdcd;fill-opacity:1;stroke:none;stroke-width:0.26458332px;stroke-linecap:butt;stroke-linejoin:miter;stroke-opacity:1" />
    <path
       id="path925"
       d="m 45.546131,82.947184 c -1.048095,-1.195237 -3.713104,0.593998 -4.204986,1.984374 -0.491882,1.390376 -1.477089,1.781652 -0.944941,2.456845 0.532148,0.675193 1.460493,0.330989 2.504094,-0.33073 1.043601,-0.661719 3.693928,-2.915252 2.645833,-4.110489 z"
       style="fill:#cdcdcd;fill-opacity:1;stroke:none;stroke-width:0.26458332px;stroke-linecap:butt;stroke-linejoin:miter;stroke-opacity:1" />
    <path
       id="path927"
       d="m 50.176339,57.481038 c -0.818181,-0.651211 -2.221976,0.516303 -2.968204,1.309328 -0.746228,0.793025 -1.990358,2.25855 -1.142288,3.084644 0.84807,0.826094 2.815093,-0.537846 3.540768,-1.417955 0.725675,-0.880109 1.387905,-2.324806 0.569724,-2.976017 z"
       style="fill:#cdcdcd;fill-opacity:1;stroke:none;stroke-width:0.26458332px;stroke-linecap:butt;stroke-linejoin:miter;stroke-opacity:1" />
    <path
       id="path929"
       d="m 56.743674,56.81958 c -0.495263,-0.778884 -1.103781,-0.0943 -2.55134,0.944938 -1.447559,1.039234 -2.314199,2.073236 -1.606396,2.834823 0.707803,0.761587 1.970566,-0.613346 2.69308,-1.27567 0.722514,-0.662324 1.959919,-1.725207 1.464656,-2.504091 z"
       style="fill:#cdcdcd;fill-opacity:1;stroke:none;stroke-width:0.26458332px;stroke-linecap:butt;stroke-linejoin:miter;stroke-opacity:1" />
    <path
       id="path935"
       d="m 66.807291,55.260427 c -0.781439,-0.588257 -1.869591,0.2084 -2.55134,0.992188 -0.681749,0.783788 -1.669378,2.665551 -0.803198,3.401785 0.86618,0.736234 2.433705,-0.408612 3.071055,-1.275668 0.63735,-0.867056 1.064922,-2.530048 0.283483,-3.118305 z"
       style="fill:#cdcdcd;fill-opacity:1;stroke:none;stroke-width:0.26458332px;stroke-linecap:butt;stroke-linejoin:miter;stroke-opacity:1" />
    <path
       id="path937"
       d="m 69.68936,61.591528 c -0.708422,-0.451286 -2.17497,-1.110199 -2.787576,0.377976 -0.612606,1.488175 -1.71598,2.34783 -0.755952,3.212798 0.960028,0.864968 3.703795,-0.470627 4.204986,-1.464657 0.501191,-0.99403 0.04696,-1.674831 -0.661458,-2.126117 z"
       style="fill:#cdcdcd;fill-opacity:1;stroke:none;stroke-width:0.26458332px;stroke-linecap:butt;stroke-linejoin:miter;stroke-opacity:1" />
    <path
       id="path958"
       d="m 50.365326,84.506336 c -0.629978,-0.565336 -1.521107,0.315087 -2.409597,1.086681 -0.88849,0.771594 -3.437056,2.650554 -2.362351,3.732514 1.074705,1.08196 3.279334,-1.563555 4.015996,-2.504091 0.736662,-0.940536 1.38593,-1.749768 0.755952,-2.315104 z"
       style="fill:#cdcdcd;fill-opacity:1;stroke:none;stroke-width:0.26458332px;stroke-linecap:butt;stroke-linejoin:miter;stroke-opacity:1" />
    <path
       id="path960"
       d="m 36.616444,83.041677 c -0.613171,-0.572973 -1.443883,-0.03932 -2.173364,0.566965 -0.729481,0.606289 -2.19542,2.273184 -1.464657,3.118302 0.730763,0.845118 2.444655,-0.195209 3.118302,-0.944941 0.673647,-0.749732 1.13289,-2.167353 0.519719,-2.740326 z"
       style="fill:#cdcdcd;fill-opacity:1;stroke:none;stroke-width:0.26458332px;stroke-linecap:butt;stroke-linejoin:miter;stroke-opacity:1" />
    <path
       id="path962"
       d="m 65.748304,45.213148 c -1.010874,-0.69244 -2.521088,1.027406 -3.474506,1.937702 -0.953418,0.910296 -3.065184,2.137099 -2.071338,3.34087 0.993846,1.203771 4.163357,-0.789413 5.078122,-1.937705 0.914765,-1.148292 1.478596,-2.648427 0.467722,-3.340867 z"
       style="fill:#cdcdcd;fill-opacity:1;stroke:none;stroke-width:0.26458332px;stroke-linecap:butt;stroke-linejoin:miter;stroke-opacity:1" />
    <path
       id="path964"
       d="m 39.355437,89.245801 c -0.702389,-0.352348 -1.806928,0.836189 -2.271789,1.469983 -0.464861,0.633794 -0.620904,1.958412 0.167042,2.305198 0.787945,0.346785 1.795048,-1.013076 2.238383,-1.77066 0.443335,-0.757584 0.568753,-1.652173 -0.133636,-2.004521 z"
       style="fill:#cdcdcd;fill-opacity:1;stroke:none;stroke-width:0.26458332px;stroke-linecap:butt;stroke-linejoin:miter;stroke-opacity:1" />
  </g>
</svg>
